<svg xmlns="http://www.w3.org/2000/svg" id="Layer_1" viewBox="0 0 1305.24 536.07">
  <defs>
    <style>
      .cls-2{fill:#000}.cls-4{font-family:Gilroy-Light,Gilroy;font-weight:300}.cls-2{stroke-width:0}
    </style>
  </defs>
  <path
    d="M110.56 389.2V280.87h45.21V389.2c0 25.7-6.25 44.44-18.75 56.24-12.5 11.79-31.72 16.88-57.65 15.24v-43.45c10.74.7 18.63-1.17 23.65-5.61s7.53-11.91 7.53-22.43ZM346.4 434.18c-17.99 17.87-39.95 26.81-65.88 26.81s-47.83-8.94-65.7-26.81c-17.87-17.87-26.81-39.77-26.81-65.7s8.94-47.83 26.81-65.7c17.87-17.87 39.77-26.81 65.7-26.81s47.89 8.94 65.88 26.81c17.99 17.87 26.98 39.77 26.98 65.7s-9 47.83-26.98 65.7Zm-99.7-31.02c8.99 9.11 20.27 13.67 33.82 13.67s24.88-4.55 33.99-13.67c9.11-9.11 13.66-20.67 13.66-34.69s-4.55-25.58-13.66-34.69-20.45-13.67-33.99-13.67-24.83 4.55-33.82 13.67c-9 9.11-13.49 20.67-13.49 34.69s4.49 25.58 13.49 34.69ZM520.91 280.87h45.2v175.21h-45.2v-19.62c-10.98 16.36-28.39 24.53-52.21 24.53-19.16 0-34.99-6.42-47.48-19.27-12.5-12.84-18.75-30.6-18.75-53.26V280.88h45.21v101.97c0 11.68 3.16 20.62 9.46 26.81 6.31 6.19 14.72 9.29 25.23 9.29 11.68 0 21.03-3.62 28.03-10.86 7.01-7.24 10.51-18.1 10.51-32.59v-94.61ZM652.66 311c4.21-11.21 11.15-19.62 20.85-25.23 9.69-5.61 20.5-8.41 32.41-8.41v50.46c-13.79-1.63-26.11 1.17-36.97 8.41-10.87 7.24-16.3 19.27-16.3 36.09v83.75h-45.2V280.86h45.2V311ZM829.62 275.96c19.15 0 34.98 6.43 47.48 19.27 12.49 12.85 18.75 30.61 18.75 53.26v107.58h-45.2V354.1c0-11.68-3.16-20.61-9.46-26.81-6.31-6.19-14.72-9.29-25.23-9.29-11.68 0-21.03 3.62-28.03 10.86-7.01 7.24-10.51 18.11-10.51 32.59v94.61h-45.2V280.85h45.2v19.62c10.98-16.35 28.39-24.53 52.21-24.53ZM1067.56 280.87h45.2v175.21h-45.2v-20.67c-13.55 17.06-32.59 25.58-57.12 25.58s-43.4-8.94-60.1-26.81c-16.71-17.87-25.06-39.77-25.06-65.7s8.35-47.83 25.06-65.7c16.7-17.87 36.73-26.81 60.1-26.81 24.53 0 43.57 8.53 57.12 25.58v-20.67Zm-83.4 123.17c9.11 9.23 20.68 13.84 34.69 13.84s25.64-4.61 34.87-13.84c9.23-9.23 13.84-21.08 13.84-35.57s-4.62-26.34-13.84-35.57c-9.23-9.23-20.85-13.84-34.87-13.84s-25.58 4.62-34.69 13.84c-9.11 9.23-13.66 21.09-13.66 35.57s4.55 26.34 13.66 35.57ZM1206.5 411.63c5.03 4.44 12.91 6.31 23.65 5.61v43.45c-25.93 1.63-45.14-3.45-57.65-15.24-12.49-11.8-18.75-30.55-18.75-56.24V280.88h45.21v108.33c0 10.51 2.51 17.99 7.53 22.43Z"
    class="cls-2"/>
  <text style="fill:#000;font-size:278.07px" transform="translate(69.75 217.49)">
    <tspan x="0" y="0" style="font-family:Gilroy-SemiBold,Gilroy;font-weight:600">one</tspan>
    <tspan x="486.9" y="0"
           style="font-family:Gilroy-Light,Gilroy;font-weight:300;letter-spacing:-.02em">v
    </tspan>
    <tspan x="623.43" y="0" class="cls-4">oi</tspan>
    <tspan x="850.06" y="0"
           style="letter-spacing:0;font-family:Gilroy-Light,Gilroy;font-weight:300">c
    </tspan>
    <tspan x="1004.67" y="0" class="cls-4">e</tspan>
  </text>
</svg>
